# xmcd
#
# Track frame offsets: 
#        150
#        7044
#        26685
#        41282
#        50647
#        65520
#        77667
#        91931
#        106483
#        123244
#        137953
#        153010
#        167960
#        184330
#
# Disc length: 2707 seconds
#
# Revision: 0
# Processed by: cddbd v1.5.2PL0 Copyright (c) Steve Scherf et al.
# Submitted via: ExactAudioCopyFreeDBPlugin 1.0
#
DISCID=b60a910e
DTITLE=Bryson Tiller - TRAPSOUL
DYEAR=2015
DGENRE=R&B
TTITLE0=Intro (Difference)
TTITLE1=Let Em' Know
TTITLE2=Exchange
TTITLE3=For However Long
TTITLE4=Don't
TTITLE5=Open Interlude
TTITLE6=Ten Nine Fourteen
TTITLE7=The Sequence
TTITLE8=Rambo
TTITLE9=502 Come Up
TTITLE10=Sorry Not Sorry
TTITLE11=Been That Way
TTITLE12=Overtime
TTITLE13=Right My Wrongs
EXTD=
EXTT0=
EXTT1=
EXTT2=
EXTT3=
EXTT4=
EXTT5=
EXTT6=
EXTT7=
EXTT8=
EXTT9=
EXTT10=
EXTT11=
EXTT12=
EXTT13=
PLAYORDER=
